{"title":"Accepted (2006) 720p _sujaidr","uid":7135751,"size":736524946,"categoryP":"video","categoryS":"hd___movies","magnet":"?xt=urn:btih:9c0b54e484d48c1a04a56c61f0f9a934f8b128cb&amp;dn=Accepted+%282006%29+720p+_sujaidr&amp;tr=udp%3A%2F%2Ftracker.openbittorrent.com%3A80&amp;tr=udp%3A%2F%2Fopen.demonii.com%3A1337&amp;tr=udp%3A%2F%2Ftracker.coppersurfer.tk%3A6969&amp;tr=udp%3A%2F%2Fexodus.desync.com%3A6969","seeders":1,"leechers":3,"uploader":"sujaidr","files":-1,"time":1332806949,"description":"torrent name\n\nAccepted (2006) 720p _sujaidr\n\n\nvideo details\nID                               : 1\nFormat                           : AVC\nFormat/Info                      : Advanced Video Codec\nFormat profile                   : &lt;a class=&quot;__cf_email__&quot; href=&quot;/cdn-cgi/l/email-protection&quot; data-cfemail=&quot;0446657761686d6a614448372a34&quot;&gt;[email&amp;#160;protected]&lt;/a&gt;&lt;script cf-hash='f9e31' type=&quot;text/javascript&quot;&gt;\n/* &lt;![CDATA[ */!function(){try{var t=&quot;currentScript&quot;in document?document.currentScript:function(){for(var t=document.getElementsByTagName(&quot;script&quot;),e=t.length;e--;)if(t[e].getAttribute(&quot;cf-hash&quot;))return t[e]}();if(t&amp;&amp;t.previousSibling){var e,r,n,i,c=t.previousSibling,a=c.getAttribute(&quot;data-cfemail&quot;);if(a){for(e=&quot;&quot;,r=parseInt(a.substr(0,2),16),n=2;a.length-n;n+=2)i=parseInt(a.substr(n,2),16)^r,e+=String.fromCharCode(i);e=document.createTextNode(e),c.parentNode.replaceChild(e,c)}}}catch(u){}}();/* ]]&gt; */&lt;/script&gt;\nFormat settings, CABAC           : No\nFormat settings, ReFrames        : 1 frame\nMuxing mode                      : Header stripping\nCodec ID                         : V_MPEG4/ISO/AVC\nDuration                         : 1h 33mn\nBit rate                         : 919 Kbps\nWidth                            : 1 280 pixels\nHeight                           : 544 pixels\nDisplay aspect ratio             : 2.35:1\nFrame rate                       : 23.976 fps\nColor space                      : YUV\nChroma subsampling               : 4:2:0\nBit depth                        : 8 bits\nScan type                        : Progressive\nBits/(Pixel*Frame)               : 0.055\nStream size                      : 599 MiB (86%\n\naudio details\nID                               : 2\nFormat                           : AC-3\nFormat/Info                      : Audio Coding 3\nMode extension                   : CM (complete main)\nMuxing mode                      : Header stripping\nCodec ID                         : A_AC3\nDuration                         : 1h 33mn\nBit rate mode                    : Constant\nBit rate                         : 128 Kbps\nChannel(s)                       : 6 channels\nChannel positions                : Front: L C R, Side: L R, LFE\nSampling rate                    : 48.0 KHz\nBit depth                        : 16 bits\nCompression mode                 : Lossy\nStream size                      : 85.2 MiB (12%)\n\nlanguage                          English\n                   \n\nsubtitle                          English muxed\n\nPLOT:A high school slacker who's rejected by every school he applies to opts to create his own institution of higher learning, the South Harmon Institute of Technology, on a rundown piece of property near his hometown.\n\nRatings: 6.4/10 from 45,459 users \nDirector:Steve Pink\nStars:  Justin Long, Jonah Hill and Blake Lively\nimdb: &lt;a href=&quot; http://www.imdb.com/title/tt0384793/&quot; rel=&quot;nofollow&quot; target=&quot;_NEW&quot;&gt; http://www.imdb.com/title/tt0384793/&lt;/a&gt;\n\nscreenshots\n\n               &lt;a href=&quot; http://img191.imageshack.us/img191/9195/vlcsnap2012032714h42m17.png&quot; rel=&quot;nofollow&quot; target=&quot;_NEW&quot;&gt; http://img191.imageshack.us/img191/9195/vlcsnap2012032714h42m17.png&lt;/a&gt;\n\n               &lt;a href=&quot; http://img543.imageshack.us/img543/7596/vlcsnap2012032714h44m42.png&quot; rel=&quot;nofollow&quot; target=&quot;_NEW&quot;&gt; http://img543.imageshack.us/img543/7596/vlcsnap2012032714h44m42.png&lt;/a&gt;\n\n               &lt;a href=&quot; http://img189.imageshack.us/img189/5921/vlcsnap2012032714h45m36.png&quot; rel=&quot;nofollow&quot; target=&quot;_NEW&quot;&gt; http://img189.imageshack.us/img189/5921/vlcsnap2012032714h45m36.png&lt;/a&gt;\n\n               &lt;a href=&quot; http://img525.imageshack.us/img525/8205/vlcsnap2012032714h48m49.png&quot; rel=&quot;nofollow&quot; target=&quot;_NEW&quot;&gt; http://img525.imageshack.us/img525/8205/vlcsnap2012032714h48m49.png&lt;/a&gt;\n","torrent":{"xt":"urn:btih:9c0b54e484d48c1a04a56c61f0f9a934f8b128cb","amp;dn":"Accepted+%282006%29+720p+_sujaidr","amp;tr":["udp%3A%2F%2Ftracker.openbittorrent.com%3A80","udp%3A%2F%2Fopen.demonii.com%3A1337","udp%3A%2F%2Ftracker.coppersurfer.tk%3A6969","udp%3A%2F%2Fexodus.desync.com%3A6969"],"infoHash":"9c0b54e484d48c1a04a56c61f0f9a934f8b128cb","infoHashBuffer":{"type":"Buffer","data":[156,11,84,228,132,212,140,26,4,165,108,97,240,249,169,52,248,177,40,203]},"announce":[],"urlList":[]}}